<?xml version="1.0" standalone="no"?>
<!DOCTYPE svg PUBLIC "-//W3C//DTD SVG 20010904//EN"
 "http://www.w3.org/TR/2001/REC-SVG-20010904/DTD/svg10.dtd">
<svg version="1.0" xmlns="http://www.w3.org/2000/svg"
 width="273.000000pt" height="274.000000pt" viewBox="0 0 273.000000 274.000000"
 preserveAspectRatio="xMidYMid meet">
<metadata>
Created by potrace 1.16, written by Peter Selinger 2001-2019
</metadata>
<g transform="translate(0.000000,274.000000) scale(0.100000,-0.100000)"
fill="#000000" stroke="none">
<path d="M1275 2499 c-510 -41 -931 -420 -1024 -924 -79 -424 92 -862 436
-1118 118 -87 244 -148 381 -185 l112 -30 -2 382 -3 381 -133 0 -132 0 0 155
0 155 132 0 133 0 5 175 c5 164 7 179 32 233 36 77 122 159 196 188 67 26 181
34 316 24 l96 -7 0 -139 0 -139 -102 -1 c-118 0 -163 -12 -192 -52 -17 -24
-21 -46 -24 -157 l-4 -130 156 0 c86 0 156 -4 156 -8 0 -10 -29 -227 -36 -270
l-5 -33 -132 3 -132 3 -3 -382 c-1 -256 1 -383 8 -383 42 0 213 48 294 82 401
169 664 543 691 984 23 357 -140 723 -420 946 -159 127 -367 217 -552 238 -54
6 -109 12 -123 14 -14 2 -70 0 -125 -5z"/>
</g>
</svg>
