<?xml version="1.0" standalone="no"?>
<!DOCTYPE svg PUBLIC "-//W3C//DTD SVG 20010904//EN"
 "http://www.w3.org/TR/2001/REC-SVG-20010904/DTD/svg10.dtd">
<svg version="1.0" xmlns="http://www.w3.org/2000/svg"
 width="303.000000pt" height="303.000000pt" viewBox="0 0 303.000000 303.000000"
 preserveAspectRatio="xMidYMid meet">
<metadata>
Created by potrace 1.16, written by Peter Selinger 2001-2019
</metadata>
<g transform="translate(0.000000,303.000000) scale(0.100000,-0.100000)"
fill="#000000" stroke="none">
<path d="M842 2949 c-122 -12 -235 -43 -337 -93 -96 -48 -179 -111 -169 -128
4 -6 3 -8 -3 -5 -14 8 -87 -69 -78 -82 3 -7 1 -10 -6 -9 -31 7 -120 -191 -149
-332 -17 -85 -31 -439 -28 -710 l3 -245 3 258 c2 225 4 257 18 257 8 0 12 -4
9 -10 -3 -5 3 -10 14 -10 14 0 21 6 21 19 0 11 6 22 13 24 9 4 8 8 -3 16 -11
8 -2 11 38 11 59 0 71 -17 15 -22 -38 -3 -38 -3 -41 -51 l-3 -48 43 3 c40 3
43 5 44 33 0 17 2 44 3 60 l3 30 8 -30 8 -30 2 30 c1 17 4 23 7 15 14 -43 16
-44 23 -15 4 17 9 -103 10 -265 l3 -295 8 345 c4 190 10 390 13 446 12 181 60
313 146 407 40 43 47 57 37 67 -10 12 -9 12 6 1 15 -12 20 -11 35 1 30 27 116
66 181 83 100 26 293 34 781 35 628 0 764 -12 900 -77 30 -15 59 -29 64 -31 5
-3 6 0 2 6 -3 6 -2 13 3 17 6 3 8 -3 6 -14 -3 -14 6 -28 27 -43 18 -12 28 -16
23 -7 -5 8 -5 11 1 6 5 -5 9 -12 9 -16 0 -3 16 -29 36 -56 120 -165 134 -281
126 -1100 -6 -587 -9 -627 -63 -760 -23 -55 -45 -85 -106 -147 -73 -74 -84
-104 -22 -56 l29 22 -20 -24 c-17 -20 -17 -22 -3 -17 10 3 20 1 24 -5 4 -6 3
-8 -2 -5 -6 3 -16 2 -23 -3 -8 -4 -27 -4 -43 1 -23 6 -40 3 -70 -12 -79 -40
-185 -60 -348 -66 l-155 -6 4 -43 c3 -39 1 -44 -18 -44 -18 0 -21 -6 -21 -42
0 -24 4 -49 9 -57 7 -10 4 -19 -7 -29 -9 -7 -11 -11 -4 -7 10 5 18 -10 10 -17
-2 -1 -165 -5 -363 -8 l-360 -6 370 -2 c648 -3 825 16 1010 107 85 42 200 135
189 153 -4 6 -2 8 4 4 27 -17 135 153 177 279 46 139 48 159 52 825 5 666 0
791 -37 936 -57 222 -198 398 -396 495 -101 49 -205 76 -343 89 -124 12 -1226
11 -1349 -1z m1457 -35 c2 -2 -7 -4 -20 -5 l-24 -1 25 -8 c21 -7 21 -8 5 -9
-11 0 -27 4 -35 9 -13 9 -13 10 0 10 13 0 13 1 0 10 -11 8 -7 9 15 4 17 -4 32
-8 34 -10z m-109 -10 c0 -2 -7 -4 -15 -4 -8 0 -15 4 -15 10 0 5 7 7 15 4 8 -4
15 -8 15 -10z m263 -21 c3 -5 -8 -8 -25 -9 -20 -1 -25 2 -16 7 16 11 35 11 41
2z m57 -33 c0 -5 -2 -10 -4 -10 -3 0 -8 5 -11 10 -3 6 -1 10 4 10 6 0 11 -4
11 -10z m-1955 -21 c11 -16 1 -19 -13 -3 -7 8 -8 14 -3 14 5 0 13 -5 16 -11z
m2063 -34 c2 -2 -7 -2 -21 -1 -13 0 -24 6 -24 13 0 9 6 9 21 1 12 -6 22 -12
24 -13z m36 -24 c3 -5 -1 -14 -9 -21 -12 -10 -18 -10 -30 0 -8 7 -15 16 -15
21 0 12 47 12 54 0z m-2258 -36 c0 -19 -3 -22 -13 -13 -10 8 -10 14 -2 24 15
18 15 18 15 -11z m1517 8 c-7 -2 -19 -2 -25 0 -7 3 -2 5 12 5 14 0 19 -2 13
-5z m774 -20 c0 -10 -4 -10 -11 -3 -14 14 -29 13 -20 -2 4 -7 3 -8 -5 -4 -6 4
-9 11 -6 16 8 14 42 8 42 -7z m-814 0 c-7 -2 -19 -2 -25 0 -7 3 -2 5 12 5 14
0 19 -2 13 -5z m400 -20 c-7 -2 -19 -2 -25 0 -7 3 -2 5 12 5 14 0 19 -2 13 -5z
m202 -3 c3 -6 -1 -7 -9 -4 -18 7 -21 14 -7 14 6 0 13 -4 16 -10z m-45 -10 c-8
-5 -19 -10 -25 -10 -5 0 -3 5 5 10 8 5 20 10 25 10 6 0 3 -5 -5 -10z m320 4
c0 -8 -19 -13 -24 -6 -3 5 1 9 9 9 8 0 15 -2 15 -3z m-2123 -10 c-3 -3 -12 -4
-19 -1 -8 3 -5 6 6 6 11 1 17 -2 13 -5z m1836 -11 c-7 -2 -19 -2 -25 0 -7 3
-2 5 12 5 14 0 19 -2 13 -5z m-2165 -28 c-3 -3 -9 2 -12 12 -6 14 -5 15 5 6 7
-7 10 -15 7 -18z m2485 -15 c-6 -24 -21 -26 -29 -5 -4 8 -10 13 -14 10 -5 -3
-11 -1 -14 4 -3 4 4 8 17 7 14 -1 21 4 19 13 -3 12 0 12 11 2 8 -6 13 -21 10
-31z m-333 20 c8 -5 11 -10 5 -10 -5 0 -17 5 -25 10 -8 5 -10 10 -5 10 6 0 17
-5 25 -10z m105 -47 c2 -28 -3 -29 -21 -5 -18 23 -17 34 3 30 9 -2 17 -13 18
-25z m275 -28 c7 -9 8 -15 2 -15 -5 0 -12 7 -16 15 -3 8 -4 15 -2 15 2 0 9 -7
16 -15z m-90 -16 c0 -5 -4 -9 -10 -9 -5 0 -10 7 -10 16 0 8 5 12 10 9 6 -3 10
-10 10 -16z m100 -57 c-1 -14 -40 43 -40 58 0 8 9 0 20 -18 11 -18 20 -36 20
-40z m-219 21 c12 -16 12 -17 -2 -6 -9 7 -20 9 -24 5 -5 -4 -5 -1 -1 6 9 16
11 15 27 -5z m190 -46 c-10 -9 -11 -8 -5 6 3 10 9 15 12 12 3 -3 0 -11 -7 -18z
m-133 -33 c-7 -15 -14 -21 -16 -15 -2 7 2 18 8 26 18 22 21 18 8 -11z m25 -9
c-3 -9 -8 -14 -10 -11 -3 3 -2 9 2 15 9 16 15 13 8 -4z m189 -92 c-5 -7 -8 5
-9 30 -1 38 0 39 8 13 4 -16 5 -35 1 -43z m-178 42 c3 -8 1 -15 -4 -15 -6 0
-10 7 -10 15 0 8 2 15 4 15 2 0 6 -7 10 -15z m0 -65 c-5 -5 -10 3 -11 18 -1
22 0 24 9 8 6 -10 6 -22 2 -26z m-2567 -22 c-3 -8 -6 -5 -6 6 -1 11 2 17 5 13
3 -3 4 -12 1 -19z m-5 -80 c-2 -10 -6 -18 -7 -18 -1 0 -5 8 -7 18 -3 11 0 19
7 19 7 0 10 -8 7 -19z m2808 -58 c0 -5 -5 -10 -11 -10 -5 0 -7 5 -4 10 3 6 8
10 11 10 2 0 4 -4 4 -10z m-2710 -119 c0 -5 -20 -11 -45 -13 -31 -2 -45 1 -45
9 0 9 16 13 45 13 25 0 45 -4 45 -9z m-37 -76 c29 -1 37 2 37 17 0 14 8 18 39
18 l38 0 -11 -41 -11 -42 -8 37 c-10 42 -32 47 -41 10 -6 -22 -11 -25 -48 -22
-45 3 -66 24 -53 54 7 17 8 17 14 -6 6 -20 13 -24 44 -25z m-101 -5 c-2 -22
-9 -40 -14 -40 -6 0 -7 7 -4 16 3 9 6 27 6 40 0 13 3 24 8 24 4 0 6 -18 4 -40z
m2794 -1316 c-4 -16 -3 -23 3 -19 7 4 8 0 5 -10 -10 -26 -26 -1 -18 29 3 14 8
26 11 26 3 0 2 -12 -1 -26z m-476 -294 c-24 -15 -37 -11 -16 5 11 8 22 12 25
9 3 -3 -1 -9 -9 -14z m-55 -19 c-2 -5 -14 -11 -25 -14 -11 -3 -18 -1 -14 4 3
5 12 9 20 9 9 0 12 5 8 12 -4 7 -3 8 5 4 6 -4 9 -11 6 -15z m-95 -11 c-8 -5
-19 -10 -25 -10 -5 0 -3 5 5 10 8 5 20 10 25 10 6 0 3 -5 -5 -10z m-185 -91
c5 -44 3 -75 -3 -81 -14 -14 -162 -23 -162 -10 0 13 28 23 32 11 2 -5 29 -7
66 -3 l62 7 0 38 c0 32 -3 39 -20 39 -16 0 -20 7 -20 35 0 28 4 35 19 35 16 0
20 -10 26 -71z m22 19 c-2 -13 -4 -5 -4 17 -1 22 1 32 4 23 2 -10 2 -28 0 -40z
m395 -65 c-6 -2 -9 -10 -6 -15 4 -7 2 -8 -5 -4 -13 9 -5 26 12 25 9 0 8 -2 -1
-6z m-62 -43 c-8 -5 -19 -10 -25 -10 -5 0 -3 5 5 10 8 5 20 10 25 10 6 0 3 -5
-5 -10z m-194 -9 c-4 -5 6 -14 21 -19 16 -6 21 -11 12 -11 -9 -1 -27 8 -40 19
-21 17 -22 19 -6 20 10 0 16 -4 13 -9z m-59 -7 c-3 -3 -12 -4 -19 -1 -8 3 -5
6 6 6 11 1 17 -2 13 -5z m-154 -11 c-7 -2 -19 -2 -25 0 -7 3 -2 5 12 5 14 0
19 -2 13 -5z m80 0 c-7 -2 -19 -2 -25 0 -7 3 -2 5 12 5 14 0 19 -2 13 -5z
m-68 -23 c-3 -5 -15 -10 -26 -10 -10 0 -19 5 -19 10 0 6 12 10 26 10 14 0 23
-4 19 -10z m78 3 c-7 -2 -21 -2 -30 0 -10 3 -4 5 12 5 17 0 24 -2 18 -5z
m-155 -10 c-10 -2 -26 -2 -35 0 -10 3 -2 5 17 5 19 0 27 -2 18 -5z"/>
<path d="M2220 2438 c-52 -26 -90 -89 -90 -148 0 -54 38 -121 85 -148 55 -32
138 -27 188 11 96 73 86 225 -18 284 -51 29 -109 29 -165 1z"/>
<path d="M1424 2249 c-278 -36 -519 -236 -604 -502 -22 -67 -21 -110 1 -49 10
30 29 44 29 22 0 -5 -4 -10 -10 -10 -5 0 -10 -10 -9 -22 0 -17 2 -19 7 -8 15
33 45 70 56 70 8 0 13 -18 15 -46 1 -27 -2 -43 -7 -40 -6 3 -12 -1 -16 -9 -4
-12 3 -15 32 -15 34 0 38 3 40 28 1 15 6 28 12 30 5 2 14 19 20 38 8 23 18 34
31 34 13 0 18 4 13 12 -5 7 -3 8 6 3 10 -6 12 -4 7 9 -5 11 -3 15 5 10 7 -5 9
-2 6 8 -5 11 0 15 15 14 12 0 25 -5 30 -11 4 -6 10 -1 13 12 4 13 10 20 15 17
5 -3 1 -16 -8 -29 -12 -15 -20 -19 -25 -11 -5 7 -8 5 -8 -6 0 -10 -5 -18 -11
-18 -6 0 -8 -9 -4 -22 3 -13 3 -18 -2 -13 -4 6 -18 11 -30 13 -21 3 -21 2 -8
-42 12 -38 11 -51 -1 -93 -17 -55 -20 -144 -5 -188 8 -24 9 -18 5 30 -11 117
33 260 109 355 26 32 33 47 24 53 -8 6 -6 7 6 3 11 -3 34 7 64 30 144 110 344
124 515 38 67 -34 168 -135 202 -202 145 -286 -3 -618 -315 -707 -53 -15 -53
-15 -9 -9 25 4 53 7 62 7 9 1 14 5 12 9 -9 14 7 9 22 -7 18 -17 34 -20 34 -4
0 5 4 7 10 4 5 -3 18 -1 27 5 15 9 14 10 -7 5 l-25 -6 25 20 c33 27 10 27 -24
0 -15 -12 -25 -16 -24 -8 2 7 19 21 38 31 40 21 43 22 35 8 -3 -5 -1 -10 6
-10 8 0 7 -5 -2 -17 -12 -14 -12 -16 1 -11 8 3 14 15 13 26 -2 15 7 26 28 38
17 8 33 13 36 10 3 -3 -6 -11 -21 -17 -14 -7 -26 -20 -26 -31 0 -11 -15 -27
-34 -39 -32 -18 -34 -22 -25 -51 6 -23 5 -36 -5 -47 -7 -9 -18 -30 -24 -47 -9
-29 -8 -33 14 -43 20 -9 24 -8 24 5 0 11 6 15 20 11 13 -3 20 0 20 9 0 8 9 14
19 14 11 0 28 3 38 6 16 6 16 5 -2 -9 -10 -8 -26 -12 -34 -9 -9 3 -12 1 -7 -6
7 -12 -5 -16 -33 -13 -7 2 -10 -2 -7 -7 7 -12 -40 -33 -59 -26 -8 4 -21 1 -29
-5 -7 -6 -22 -9 -32 -5 -15 5 -16 4 -5 -4 25 -18 -33 -26 -177 -27 -99 0 -122
-2 -90 -8 58 -11 230 -1 296 17 30 8 86 30 125 49 423 202 555 736 275 1114
-24 33 -44 51 -51 47 -7 -4 -9 -3 -4 1 4 5 -3 19 -15 32 -17 19 -24 21 -37 10
-14 -10 -14 -10 -3 5 12 14 6 22 -44 58 -147 110 -356 163 -540 139z m169 -16
c-7 -2 -19 -2 -25 0 -7 3 -2 5 12 5 14 0 19 -2 13 -5z m-268 -23 c-3 -5 -12
-10 -18 -10 -7 0 -6 4 3 10 19 12 23 12 15 0z m454 -34 c9 -10 8 -15 -3 -19
-10 -4 -13 -1 -9 9 4 10 0 13 -13 8 -16 -5 -16 -4 -4 5 19 13 15 14 29 -3z
m56 -16 c3 -6 -1 -7 -9 -4 -18 7 -21 14 -7 14 6 0 13 -4 16 -10z m120 -80 c-3
-5 -14 -10 -23 -9 -14 0 -13 2 3 9 27 11 27 11 20 0z m-528 -66 c-3 -3 -12 -4
-19 -1 -8 3 -5 6 6 6 11 1 17 -2 13 -5z m667 -114 c-5 -5 -10 3 -11 18 -1 22
0 24 9 8 6 -10 6 -22 2 -26z m-177 -3 c0 -8 -6 -14 -14 -14 -9 0 -10 4 -2 14
6 7 12 13 14 13 1 0 2 -6 2 -13z m-771 -19 c0 -10 -1 -18 -3 -18 -1 0 -7 8
-12 18 -7 13 -6 19 2 19 7 0 13 -9 13 -19z m-236 2 c0 -5 -5 -10 -11 -10 -5 0
-7 5 -4 10 3 6 8 10 11 10 2 0 4 -4 4 -10z m1005 -19 c3 -5 2 -12 -3 -15 -5
-3 -9 1 -9 9 0 17 3 19 12 6z m-1005 -17 c0 -2 -9 -4 -20 -4 -11 0 -20 4 -20
9 0 5 9 7 20 4 11 -3 20 -7 20 -9z m44 0 c3 -8 2 -12 -4 -9 -6 3 -10 10 -10
16 0 14 7 11 14 -7z m1202 -11 c-6 -6 -36 9 -36 18 0 5 9 4 20 -3 10 -7 18
-14 16 -15z m-1276 -13 c0 -5 -2 -10 -4 -10 -3 0 -8 5 -11 10 -3 6 -1 10 4 10
6 0 11 -4 11 -10z m1101 -23 c-10 -9 -11 -8 -5 6 3 10 9 15 12 12 3 -3 0 -11
-7 -18z m-1111 -8 c8 -15 8 -24 0 -34 -12 -14 -40 -10 -40 7 0 5 5 6 12 2 8
-5 9 -2 5 10 -5 11 -3 15 5 10 8 -5 9 -2 5 9 -9 24 0 21 13 -4z m1121 -66
c-12 -20 -14 -14 -5 12 4 9 9 14 11 11 3 -2 0 -13 -6 -23z m-930 -20 c-12 -20
-14 -14 -5 12 4 9 9 14 11 11 3 -2 0 -13 -6 -23z m1124 -457 c0 -14 -3 -22 -7
-20 -4 3 -7 16 -6 29 3 30 11 23 13 -9z m-256 -43 c-8 -9 -14 -24 -14 -35 0
-10 -4 -18 -10 -18 -17 0 -12 24 9 48 22 25 35 30 15 5z m221 -28 c0 -12 -19
-12 -23 0 -4 9 -1 12 9 8 7 -3 14 -7 14 -8z m-270 -29 c0 -3 -15 -14 -32 -26
l-33 -22 28 26 c27 25 37 31 37 22z m160 -119 c0 -2 -10 -12 -22 -23 l-23 -19
19 23 c18 21 26 27 26 19z m-166 -92 c-4 -8 -11 -15 -18 -16 -6 0 -2 -4 9 -9
16 -7 17 -9 3 -9 -26 -1 -32 19 -12 34 24 18 25 18 18 0z m64 -4 c10 -6 10
-10 -3 -21 -13 -11 -14 -10 -9 5 6 14 3 16 -16 10 -15 -5 -20 -4 -16 4 8 13
26 14 44 2z"/>
<path d="M287 1820 c-3 -11 -1 -23 4 -26 5 -3 9 6 9 20 0 31 -6 34 -13 6z"/>
<path d="M106 1815 c4 -8 10 -15 16 -15 5 0 6 -4 3 -10 -3 -5 -1 -10 4 -10 6
0 11 11 11 25 0 18 -5 25 -20 25 -13 0 -18 -5 -14 -15z"/>
<path d="M262 1810 c0 -14 2 -19 5 -12 2 6 2 18 0 25 -3 6 -5 1 -5 -13z"/>
<path d="M1062 1796 c-17 -37 -15 -45 4 -18 8 12 14 27 12 33 -2 6 -9 -1 -16
-15z"/>
<path d="M292 1670 c0 -14 2 -19 5 -12 2 6 2 18 0 25 -3 6 -5 1 -5 -13z"/>
<path d="M996 1658 c-5 -10 -12 -15 -17 -12 -5 3 -9 1 -9 -5 0 -5 6 -14 14
-18 8 -4 16 -24 18 -43 3 -30 4 -32 8 -10 8 37 -4 110 -14 88z"/>
<path d="M791 1634 c0 -11 3 -14 6 -6 3 7 2 16 -1 19 -3 4 -6 -2 -5 -13z"/>
<path d="M783 1520 c0 -36 2 -50 4 -32 2 17 2 47 0 65 -2 17 -4 3 -4 -33z"/>
<path d="M1041 1384 c0 -11 3 -14 6 -6 3 7 2 16 -1 19 -3 4 -6 -2 -5 -13z"/>
<path d="M1528 1013 c7 -3 16 -2 19 1 4 3 -2 6 -13 5 -11 0 -14 -3 -6 -6z"/>
<path d="M1620 990 c0 -5 5 -10 10 -10 6 0 10 5 10 10 0 6 -4 10 -10 10 -5 0
-10 -4 -10 -10z"/>
<path d="M1660 976 c0 -8 -12 -17 -27 -19 l-28 -4 28 -2 c24 -1 27 -5 27 -39
0 -21 6 -46 13 -55 10 -15 12 -5 12 58 0 53 -4 75 -12 75 -7 0 -13 -6 -13 -14z"/>
<path d="M1620 866 c0 -22 3 -27 11 -19 8 8 8 16 0 30 -9 16 -10 14 -11 -11z"/>
<path d="M1720 850 c0 -5 7 -10 16 -10 8 0 12 5 9 10 -3 6 -10 10 -16 10 -5 0
-9 -4 -9 -10z"/>
<path d="M1603 303 c15 -2 39 -2 55 0 15 2 2 4 -28 4 -30 0 -43 -2 -27 -4z"/>
<path d="M1760 302 c0 -4 18 -6 40 -4 40 4 40 4 40 -32 0 -20 5 -36 10 -36 6
0 10 15 10 34 0 19 6 37 13 39 6 3 -16 6 -50 6 -35 1 -63 -2 -63 -7z"/>
<path d="M1740 219 c0 -5 5 -7 10 -4 6 3 10 8 10 11 0 2 -4 4 -10 4 -5 0 -10
-5 -10 -11z"/>
<path d="M1866 137 c3 -10 9 -15 12 -12 3 3 0 11 -7 18 -10 9 -11 8 -5 -6z"/>
<path d="M1807 125 c-7 -15 1 -25 20 -25 7 0 13 6 13 14 0 19 -27 28 -33 11z"/>
</g>
</svg>
