<?xml version="1.0" standalone="no"?>
<!DOCTYPE svg PUBLIC "-//W3C//DTD SVG 20010904//EN"
 "http://www.w3.org/TR/2001/REC-SVG-20010904/DTD/svg10.dtd">
<svg version="1.0" xmlns="http://www.w3.org/2000/svg"
 width="255.000000pt" height="270.000000pt" viewBox="0 0 255.000000 270.000000"
 preserveAspectRatio="xMidYMid meet">
<metadata>
Created by potrace 1.16, written by Peter Selinger 2001-2019
</metadata>
<g transform="translate(0.000000,270.000000) scale(0.100000,-0.100000)"
fill="#000000" stroke="none">
<path d="M1046 2534 c-434 -79 -802 -401 -935 -819 -45 -141 -56 -217 -56
-375 1 -253 62 -459 199 -664 205 -308 519 -495 900 -536 386 -42 803 134
1050 442 249 310 332 698 231 1078 -31 117 -125 310 -197 405 -187 247 -453
412 -759 470 -102 19 -324 19 -433 -1z m792 -611 c-47 -54 -158 -181 -247
-282 -102 -115 -160 -189 -157 -198 3 -8 132 -181 286 -384 155 -204 284 -377
287 -385 4 -12 -28 -14 -224 -14 l-229 0 -183 240 c-127 166 -187 237 -195
231 -6 -5 -101 -113 -211 -240 l-200 -230 -113 -1 c-63 0 -112 4 -110 9 2 5
120 143 263 307 143 164 261 301 263 305 3 6 -437 590 -529 702 l-30 37 243
-2 243 -3 150 -197 c82 -109 155 -202 161 -208 8 -8 63 48 198 199 l187 210
112 3 c62 2 114 2 116 1 2 -1 -35 -46 -81 -100z"/>
<path d="M787 1888 c5 -7 104 -136 219 -287 115 -150 299 -391 410 -535 l201
-261 61 -3 c34 -2 62 0 62 3 0 4 -186 251 -412 551 l-413 544 -69 0 c-53 0
-66 -3 -59 -12z"/>
</g>
</svg>
